PathFileType	4	(X/Y/Z)	P:\Projects\LMB_grand_challenge_database\project_only\opensim\experimental_data\SixthCompetition/DM_smooth1_new.trc
DataRate	CameraRate	NumFrames	NumMarkers	Units	OrigDataRate	OrigDataStartFrame	OrigNumFrames
120	120	6	68	mm	120	277	370
Frame#	Time	Sternum			Neck			R_Shoulder			L_Shoulder			Xiphoid			Thoracic			R_Asis			L_Asis			R_Psis			L_Psis			Lumbar			R_Elbow			R_ElbowMedial			R_ShoulderAnterior			R_ShoulderPosterior			R_Wrist			R_Radius			R_Ulna			L_Elbow			L_ElbowMedial			L_ShoulderAnterior			L_ShoulderPosterior			L_Wrist			L_Ulna			L_Radius			L_Thigh_Superior			L_Thigh_Inferior			L_Thigh_Lateral			L_Knee_Lateral			L_Knee_Medial			L_Patella			L_Shank_Superior			L_Shank_Inferior			L_Shank_Lateral			L_Ankle_Lateral			L_Ankle_Medial			R_Thigh_Superior			R_Thigh_Inferior			R_Thigh_Lateral			R_Knee_Lateral			R_Knee_Medial			R_Patella			R_Shank_Superior			R_Shank_Inferior			R_Shank_Lateral			R_Ankle_Lateral			RankleMedial			R_Heel			R_Toe			R_Midfoot_Medial			R_Midfoot_Lateral			R_Hindfoot			R_Midfoot_Superior			R_ToeMedial			R_ToeLateral			L_Heel			L_Toe			L_Midfoot_Medial			L_Midfoot_Lateral			L_Hindfoot			L_Midfoot_Superior			L_ToeMedial			L_ToeLateral			Oglobal			Sacral			Xglobal			Yglobal			Zglobal			
		X1	Y1	Z1	X2	Y2	Z2	X3	Y3	Z3	X4	Y4	Z4	X5	Y5	Z5	X6	Y6	Z6	X7	Y7	Z7	X8	Y8	Z8	X9	Y9	Z9	X10	Y10	Z10	X11	Y11	Z11	X12	Y12	Z12	X13	Y13	Z13	X14	Y14	Z14	X15	Y15	Z15	X16	Y16	Z16	X17	Y17	Z17	X18	Y18	Z18	X19	Y19	Z19	X20	Y20	Z20	X21	Y21	Z21	X22	Y22	Z22	X23	Y23	Z23	X24	Y24	Z24	X25	Y25	Z25	X26	Y26	Z26	X27	Y27	Z27	X28	Y28	Z28	X29	Y29	Z29	X30	Y30	Z30	X31	Y31	Z31	X32	Y32	Z32	X33	Y33	Z33	X34	Y34	Z34	X35	Y35	Z35	X36	Y36	Z36	X37	Y37	Z37	X38	Y38	Z38	X39	Y39	Z39	X40	Y40	Z40	X41	Y41	Z41	X42	Y42	Z42	X43	Y43	Z43	X44	Y44	Z44	X45	Y45	Z45	X46	Y46	Z46	X47	Y47	Z47	X48	Y48	Z48	X49	Y49	Z49	X50	Y50	Z50	X51	Y51	Z51	X52	Y52	Z52	X53	Y53	Z53	X54	Y54	Z54	X55	Y55	Z55	X56	Y56	Z56	X57	Y57	Z57	X58	Y58	Z58	X59	Y59	Z59	X60	Y60	Z60	X61	Y61	Z61	X62	Y62	Z62	X63	Y63	Z63	X64	Y64	Z64	X65	Y65	Z65	X66	Y66	Z66	X67	Y67	Z67	X68	Y68	Z68	

278	3.408333	1083.48	1379.53	179.609	916.388	1439.58	191.896	1034.79	1401.98	355.645	989.1849999999999	1395.48	8.246499999999999	1115.2	1208.03	188.797	840.877	1254.53	191.132	1024.95	962.279	327.674	1049.4	978.726	51.8207	831.136	1008	205.114	836.888	1006.57	127.951	835.484	1056.64	171.108	1020.56	1088.21	459.051	-0	0	0	-0	0	0	-0	0	0	1101.78	819.504	446.947	1101.27	828.981	402.63	1056.35	823.497	459.678	947.664	1063.85	-95.3664	-0	0	0	-0	0	0	-0	0	0	1007.45	797.98	-98.3844	964.434	814.53	-115.464	1005.04	815.722	-52.7623	1016.22	803.2569999999999	18.7549	1091.14	595.101	77.21850000000001	1117.14	690.2569999999999	87.9455	-0	0	0	-0	0	0	1145.14	514.088	145.205	1078.78	439.771	74.8296	1021.57	176.534	76.6048	1077.22	297.787	150.21	-0	0	0	-0	0	0	964.17	776.043	345.242	992.867	563.549	327.257	1047	697.217	345.899	-0	0	0	-0	0	0	1072.95	457.379	278.412	887.458	450.389	335.164	736.17	311.322	316.279	880.641	338.793	261.506	-0	0	0	-0	0	0	606.596	293.925	245.639	746.216	34.8504	295.486	701.778	85.5549	227.241	670.186	101.231	339.083	616.273	194.218	308.515	734.564	185.16	283.529	726.503	54.247	245.522	705.313	65.2985	334.233	931.303	61.581	130.788	1230.42	56.3913	123.563	1151.36	34.097	175.348	1137.58	34.7417	61.7016	1029.95	28.4713	72.06359999999999	1094.2	119.607	123.415	1193.12	37.6916	166.244	1191.63	39.1383	71.0981	-0	0	0	834.0119999999999	1007.29	166.533	-200	0	0	-0	0	200	-0	200	0	
279	3.416667	1092.42	1380.79	179.405	925.378	1440.95	191.333	1043.29	1403.38	355.561	998.807	1396.72	8.1122	1123.88	1208.96	188.348	850.049	1255.95	190.429	1033.5	963.319	326.679	1058.03	980.027	50.7816	839.764	1009.48	204.165	845.545	1008.19	126.887	844.226	1058.18	170.16	1027.13	1089.61	458.703	-0	0	0	-0	0	0	-0	0	0	1106.36	820.168	446.891	1105.72	829.5170000000001	402.726	1060.97	824.628	459.497	960.41	1065.04	-96.7073	-0	0	0	-0	0	0	-0	0	0	1026.49	800.788	-98.36499999999999	983.162	816.103	-115.732	1022.73	818.179	-52.6138	1022.2	803.452	17.4049	1096.67	595.761	76.9738	1122.77	690.649	88.227	-0	0	0	-0	0	0	1147.97	513.048	144.237	1081.28	439.29	74.04730000000001	1022.34	176.379	76.2572	1078.64	297.717	149.741	-0	0	0	-0	0	0	975.588	777.807	344.617	1008.68	566.167	327.659	1060.03	700.792	345.934	-0	0	0	-0	0	0	1091.25	461.418	278.809	905.727	451.715	334.771	756.875	309.955	315.086	900.917	340.03	260.661	-0	0	0	-0	0	0	626.3049999999999	288.214	244.671	777.162	35.3644	293.583	728.995	83.38339999999999	226.917	698.932	99.2561	339.152	640.966	189.777	308.5	758.6900000000001	185.11	281.291	755.986	54.1231	243.623	735.235	64.39319999999999	332.376	931.588	61.2355	131.022	1230.54	56.2488	123.462	1151.87	33.8219	174.523	1137.59	34.89	60.9404	1030.05	28.5995	71.8437	1094.31	119.441	123.172	1193.26	37.7011	166.303	1191.69	38.9509	70.9614	-0	0	0	842.655	1008.83	165.526	-200	0	0	-0	0	200	-0	200	0	
280	3.425	1101.41	1382.07	179.185	934.5170000000001	1442.3	190.715	1051.8	1404.67	355.715	1008.18	1398.23	7.5763	1132.62	1210.21	187.932	858.884	1257.62	189.622	1042.2	964.277	325.569	1066.54	981.924	49.608	848.4059999999999	1010.93	203.337	854.073	1009.68	125.905	852.8	1059.63	169.45	1033.7	1090.91	458.349	-0	0	0	-0	0	0	-0	0	0	1110.95	820.737	446.866	1110.32	830.758	402.29	1065.29	825.529	459.313	973.124	1066.08	-97.633	-0	0	0	-0	0	0	-0	0	0	1045.66	803.6420000000001	-98.02379999999999	1002.04	818.0359999999999	-116.098	1041.02	821.12	-52.1411	1027.79	803.734	15.7392	1101.22	595.259	76.3167	1128.18	690.772	88.6844	-0	0	0	-0	0	0	1150.56	512.12	143.19	1083.39	438.865	73.393	1022.9	176.366	76.01609999999999	1079.88	297.438	149.273	-0	0	0	-0	0	0	985.043	780.261	344.715	1024.71	568.6799999999999	328.031	1072.65	704.4930000000001	346.014	-0	0	0	-0	0	0	1108.49	465.086	278.162	924.013	452.625	334.294	778.179	308.023	314.244	921.76	340.74	260.524	-0	0	0	-0	0	0	646.731	281.782	244.09	809.191	36.848	291.558	757.582	81.32429999999999	225.52	727.532	95.8523	337.94	665.5119999999999	183.927	307.803	783.341	184.177	279.827	786.2380000000001	53.4243	241.71	765.154	62.5315	330.627	931.629	61.2808	130.953	1230.69	56.1117	123.323	1151.94	33.6487	174.162	1137.54	34.943	60.5968	1030.25	28.824	71.624	1094.45	119.426	123.034	1193.25	37.6056	166.298	1191.81	38.863	70.89190000000001	-0	0	0	851.24	1010.31	164.621	-200	0	0	-0	0	200	-0	200	0	
281	3.433333	1110.32	1383.4	179.152	943.638	1443.71	190.189	1060.32	1406.03	355.442	1017.62	1399.47	7.27094	1141.3	1211.21	187.66	867.668	1258.96	188.849	1051.01	965.6559999999999	324.501	1075	982.8819999999999	48.5918	857.049	1012.38	202.555	862.634	1011.15	124.985	861.543	1061.08	168.557	1039.96	1092.11	457.976	-0	0	0	-0	0	0	-0	0	0	1115.4	821.385	447.024	1115.64	831.949	402.279	1069.78	826.5119999999999	458.988	985.859	1067.28	-98.5217	-0	0	0	-0	0	0	-0	0	0	1064.74	806.722	-97.63679999999999	1020.83	820.295	-116.147	1059.47	824.271	-51.2333	1033.04	804.158	14.9436	1105.64	595.131	76.01690000000001	1133.21	690.5650000000001	88.8741	-0	0	0	-0	0	0	1153.23	511.382	142.21	1085.32	438.557	72.7595	1023.58	176.522	75.78449999999999	1081.11	297.253	148.821	-0	0	0	-0	0	0	992.427	782.942	346.257	1040.47	571.63	327.936	1087.68	707.669	345.977	-0	0	0	-0	0	0	1125.98	469.421	277.731	942.157	453.312	334.047	799.7089999999999	305.225	313.968	942.39	341.406	260.172	-0	0	0	-0	0	0	667.665	275.663	243.637	840.71	36.5696	289.723	785.874	79.6065	223.526	754.9829999999999	91.9395	335.981	690.886	177.266	306.743	808.381	182.34	279.069	816.694	52.3154	239.842	795.054	59.8111	328.746	931.699	61.4212	130.892	1230.8	56.0017	123.255	1151.97	33.7894	174.322	1137.65	34.8319	60.7439	1030.15	28.6865	71.6942	1094.63	119.506	122.954	1193.26	37.3774	166.141	1191.89	38.8046	70.877	-0	0	0	859.842	1011.76	163.77	-200	0	0	-0	0	200	-0	200	0	
282	3.441667	1119.23	1384.62	178.989	952.579	1445.18	189.77	1068.71	1407.2	355.424	1027.04	1401.16	7.01058	1149.8	1212.47	187.326	876.384	1260.44	187.956	1059.79	966.8579999999999	323.32	1083.32	984.429	47.8043	865.573	1013.74	201.843	870.974	1012.64	124.265	870.067	1062.48	167.998	1045.68	1093.18	457.676	-0	0	0	-0	0	0	-0	0	0	1119.75	822.068	447.337	1120.86	832.795	402.251	1073.64	827.258	458.373	998.574	1068.58	-99.44970000000001	-0	0	0	-0	0	0	-0	0	0	1083.76	810.08	-97.0852	1039.78	822.391	-115.881	1077.69	827.644	-50.7915	1039.46	804.753	14.9908	1109.34	594.836	75.5369	1138.16	690.226	89.1026	-0	0	0	-0	0	0	1155.67	510.488	141.506	1086.82	438.692	72.14830000000001	1024.05	176.675	75.7864	1082.3	297.192	148.779	-0	0	0	-0	0	0	1000.38	785.251	347.285	1055.74	574.556	327.792	1098.22	711.5700000000001	345.917	-0	0	0	-0	0	0	1143.93	474.815	278	960.149	453.815	334.036	821.475	301.985	313.986	962.889	341.941	260.126	-0	0	0	-0	0	0	689.958	267.889	243.284	871.775	34.7637	287.988	815.9	76.8045	222.273	783.828	86.9122	334.62	716.691	169.774	305.777	834.119	179.768	278.886	847.824	50.7825	238.175	825.172	56.4354	327.054	931.7140000000001	61.5673	130.902	1230.84	55.9242	123.255	1151.92	33.8867	174.64	1137.73	34.7253	61.0441	1030.18	28.6814	71.9071	1094.77	119.568	123.042	1193.36	37.4261	166.317	1191.93	38.7347	70.93689999999999	-0	0	0	868.273	1013.19	163.054	-200	0	0	-0	0	200	-0	200	0	
283	3.45	1128.13	1385.79	179.109	961.592	1446.52	189.355	1077.18	1408.22	355.333	1036.42	1402.31	6.83612	1158.6	1213.49	187.258	885.22	1261.68	187.259	1068.28	968.248	322.424	1091.51	985.394	47.1336	873.939	1015.04	201.107	879.196	1014	123.549	878.461	1063.8	167.306	1051.65	1094.28	457.466	-0	0	0	-0	0	0	-0	0	0	1124.1	822.755	447.583	1125.79	833.429	401.798	1077.88	828.1950000000001	458.097	1011.22	1069.87	-100.146	-0	0	0	-0	0	0	-0	0	0	1102.76	813.759	-96.49290000000001	1058.4	824.9160000000001	-115.516	1095.97	831.069	-50.2538	1045.13	805.332	14.5119	1112.78	594.749	75.1065	1143.19	690.175	89.5851	-0	0	0	-0	0	0	1157.95	509.975	140.868	1088.3	438.452	71.7144	1024.62	176.967	75.8556	1083.95	297.566	149.091	-0	0	0	-0	0	0	1010.32	787.053	346.67	1070.75	577.377	327.341	1109.3	715.154	346.012	-0	0	0	-0	0	0	1161.72	480.015	277.901	977.824	454.065	334.015	843.597	298.257	314.13	985.258	342.769	260.362	-0	0	0	-0	0	0	712.829	259.272	243.691	903.423	32.7101	286.147	847.019	74.1756	220.27	814.293	81.2385	332.661	743.3819999999999	161.676	304.762	860.36	177.139	278.358	879.728	49.063	236.753	856.439	52.851	325.644	931.684	61.5528	131.071	1230.82	55.7535	123.315	1151.98	33.6429	174.173	1137.54	35.067	60.6149	1029.66	28.9428	71.7855	1094.83	119.63	123.139	1193.42	37.3433	166.384	1191.95	38.6929	70.9522	-0	0	0	876.568	1014.52	162.328	-200	0	0	-0	0	200	-0	200	0	
